<?xml version="1.0" encoding="UTF-8" standalone="no"?>
<svg width="512px" height="512px" viewBox="0 0 512 512" version="1.1" xmlns="http://www.w3.org/2000/svg" xmlns:xlink="http://www.w3.org/1999/xlink" xmlns:sketch="http://www.bohemiancoding.com/sketch/ns">
    <!-- Generator: Sketch 3.2.2 (9983) - http://www.bohemiancoding.com/sketch -->
    <title>github</title>
    <desc>Created with Sketch.</desc>
    <defs></defs>
    <g id="Page-1" stroke="none" stroke-width="1" fill="none" fill-rule="evenodd" sketch:type="MSPage">
        <g id="github" sketch:type="MSArtboardGroup" fill="#B1B1B1">
            <path d="M256,506 C394.071187,506 506,394.071187 506,256 C506,117.928813 394.071187,6 256,6 C117.928813,6 6,117.928813 6,256 C6,394.071187 117.928813,506 256,506 Z M138.230976,289.946039 C137.166002,288.881066 137.166002,287.816092 138.230976,286.751118 C140.360924,284.62117 143.023358,283.82244 146.218279,284.354927 C149.413201,284.887414 151.276905,285.419901 151.809392,285.952388 C155.5368,287.549848 159.663505,291.144203 164.189508,296.735452 C168.71551,302.3267 172.309864,306.187299 174.972572,308.317246 C187.752257,318.966984 200.798186,319.765714 214.110358,310.713437 C215.175332,306.986029 216.905846,303.791108 219.301901,301.128673 C221.697956,298.466239 223.961093,296.602534 226.091313,295.537561 C228.221533,294.472587 231.948942,292.875126 237.273538,290.745179 C219.70147,289.147718 205.457378,286.08585 194.54126,281.559575 C183.625143,277.0333 174.972163,271.309134 168.58232,264.387078 C160.06253,254.802313 154.870714,242.288872 153.006874,226.846752 C151.143033,211.404632 152.341197,197.293729 156.601365,184.514044 C159.796286,176.52674 164.322425,169.338167 170.179781,162.948325 C165.919885,149.636152 166.718616,134.460276 172.575972,117.420695 C189.615552,118.485669 205.057672,124.343025 218.902331,134.992763 C245.526676,128.070433 273.215994,127.80419 301.970286,134.194032 C305.697695,131.531598 311.42186,128.203487 319.142784,124.209699 C326.863708,120.215911 336.581662,117.952773 348.296646,117.420286 C350.426593,123.277642 351.891001,130.199972 352.689867,138.187275 C353.488734,146.174579 353.089437,153.629395 351.491976,160.551725 C363.739175,173.33141 370.129017,190.370991 370.661504,211.670466 C370.661504,228.710047 367.732826,242.820949 361.875471,254.003174 C356.018115,265.185399 345.63462,274.503919 330.724987,281.958736 C320.607736,286.751118 307.295564,289.679796 290.788471,290.74477 C298.243287,294.472178 303.701346,298.332776 307.162647,302.326564 C310.623948,306.320352 312.887086,312.577005 313.952059,321.096523 L313.952059,346.256733 C313.952059,346.256733 314.218303,354.377226 314.75079,370.618212 C316.34825,373.280647 318.211954,375.543784 320.341902,377.407625 C322.47185,379.271465 324.335554,380.602682 325.933014,381.401276 C327.530475,382.19987 328.062962,383.398034 327.530475,384.995767 C326.997988,386.593501 324.868041,387.392231 321.140632,387.391958 C312.088355,387.391958 304.899782,384.197037 299.574913,377.807194 C297.977453,375.14476 297.178722,371.949839 297.178722,368.22243 L297.178722,329.883374 C297.178722,325.623479 296.113748,322.561611 293.983801,320.697771 C291.853853,318.83393 289.723906,317.635767 287.593958,317.10328 L287.593958,367.423291 C287.593958,376.475568 288.658932,382.332924 290.78888,384.995359 C292.918827,387.657793 294.250044,390.320227 294.782531,392.982662 C295.315018,393.515149 294.915721,393.914446 293.58464,394.180553 C292.253559,394.44666 289.990422,394.047363 286.795228,392.982662 C279.872898,391.385201 275.080516,387.790847 272.418082,382.199598 C269.755647,376.608349 268.42443,370.617803 268.42443,364.227961 L268.42443,314.70668 L258.040936,314.70668 L258.040936,364.227961 C258.040936,370.617803 256.709718,376.741403 254.047284,382.598759 C250.319876,390.053575 243.397546,394.047227 233.280295,394.579714 C231.682835,394.047227 230.884104,393.51474 230.884104,392.982253 C231.416591,392.449766 233.014052,389.787332 235.676486,384.99495 C236.208973,383.929976 236.87465,381.800028 237.673517,378.605107 C238.472383,375.410185 238.87168,371.682777 238.871408,367.422882 L238.871408,317.102871 C236.74146,317.635358 234.744566,318.833521 232.880726,320.697362 C231.016885,322.561202 230.084965,325.62307 230.084965,329.882965 L230.084965,368.222021 C230.084965,371.94943 229.286235,375.144351 227.688774,377.806785 C222.896392,384.196628 215.707819,387.39155 206.123055,387.39155 C202.395646,387.39155 200.265699,386.592819 199.733212,384.995359 C199.200725,383.930385 199.333915,382.998465 200.132782,382.199598 C200.931648,381.400731 202.129812,380.468811 203.727273,379.403837 C205.324733,378.338863 206.389707,377.540133 206.922194,377.007646 C209.052142,375.410185 210.649602,373.280238 211.714576,370.617803 C213.312037,368.487856 213.711334,362.896744 212.912467,353.844466 C212.1136,344.792189 211.980411,338.934833 212.512897,336.272399 C198.668238,341.064781 184.557336,338.66859 170.18019,329.083826 C165.920294,324.823931 161.660399,318.700332 157.400504,310.713028 C154.205583,304.855672 147.81574,297.933343 138.230976,289.946039 L138.230976,289.946039 Z" id="Oval-1" sketch:type="MSShapeGroup"></path>
        </g>
    </g>
</svg>