<?xml version="1.0" encoding="UTF-8" standalone="no"?>
<svg width="512px" height="512px" viewBox="0 0 512 512" version="1.1" xmlns="http://www.w3.org/2000/svg" xmlns:xlink="http://www.w3.org/1999/xlink" xmlns:sketch="http://www.bohemiancoding.com/sketch/ns">
    <!-- Generator: Sketch 3.2.2 (9983) - http://www.bohemiancoding.com/sketch -->
    <title>linkedin</title>
    <desc>Created with Sketch.</desc>
    <defs></defs>
    <g id="Page-1" stroke="none" stroke-width="1" fill="none" fill-rule="evenodd" sketch:type="MSPage">
        <g id="linkedin" fill="#B1B1B1" sketch:type="MSArtboardGroup">
            <path d="M256,506 C394.071187,506 506,394.071187 506,256 C506,117.928813 394.071187,6 256,6 C117.928813,6 6,117.928813 6,256 C6,394.071187 117.928813,506 256,506 Z M141.015625,154.486807 C141.015625,146.634773 143.763021,140.156845 149.257812,135.053022 C154.752604,129.9492 161.895833,127.397289 170.6875,127.397289 C179.322173,127.397289 186.308408,129.90994 191.646205,134.935242 C197.140997,140.117584 199.888393,146.870334 199.888393,155.193491 C199.888393,162.731444 197.219494,169.013071 191.881696,174.038373 C186.386905,179.220716 179.165179,181.811887 170.216518,181.811887 L169.981027,181.811887 C161.346354,181.811887 154.360119,179.220716 149.022321,174.038373 C143.684524,168.85603 141.015625,162.338842 141.015625,154.486807 Z M144.077009,360.602711 L144.077009,203.247941 L196.356027,203.247941 L196.356027,360.602711 L144.077009,360.602711 Z M225.321429,360.602711 L277.600446,360.602711 L277.600446,272.738446 C277.600446,267.242022 278.228423,263.001923 279.484375,260.01815 C281.682292,254.678767 285.018415,250.163847 289.492746,246.473391 C293.967076,242.782935 299.579613,240.937707 306.330357,240.937707 C323.91369,240.937707 332.705357,252.794279 332.705357,276.507423 L332.705357,360.602711 L384.984375,360.602711 L384.984375,270.382836 C384.984375,247.140814 379.489583,229.512996 368.5,217.499384 C357.510417,205.485771 342.988467,199.478965 324.934152,199.478965 C304.68192,199.478965 288.904018,208.194723 277.600446,225.626239 L277.600446,226.097361 L277.364955,226.097361 L277.600446,225.626239 L277.600446,203.247941 L225.321429,203.247941 C225.635417,208.273243 225.792411,223.898792 225.792411,250.124587 C225.792411,276.350382 225.635417,313.176423 225.321429,360.602711 Z" id="Oval-1" sketch:type="MSShapeGroup"></path>
        </g>
    </g>
</svg>