<?xml version="1.0" encoding="UTF-8" standalone="no"?>
<svg width="512px" height="512px" viewBox="0 0 512 512" version="1.1" xmlns="http://www.w3.org/2000/svg" xmlns:xlink="http://www.w3.org/1999/xlink" xmlns:sketch="http://www.bohemiancoding.com/sketch/ns">
    <!-- Generator: Sketch 3.2.2 (9983) - http://www.bohemiancoding.com/sketch -->
    <title>speakerdeck</title>
    <desc>Created with Sketch.</desc>
    <defs></defs>
    <g id="Page-1" stroke="none" stroke-width="1" fill="none" fill-rule="evenodd" sketch:type="MSPage">
        <g id="speakerdeck" sketch:type="MSArtboardGroup" fill="#B1B1B1">
            <path d="M256,507 C394.071187,507 506,395.071187 506,257 C506,118.928813 394.071187,7 256,7 C117.928813,7 6,118.928813 6,257 C6,395.071187 117.928813,507 256,507 Z M124.843079,188.073738 C124.843079,174.265162 136.030463,163.0711 149.846338,163.0711 L362.153662,163.0711 C375.962581,163.0711 387.156921,174.265647 387.156921,188.073738 L387.156921,326.902825 C387.156921,340.7114 375.969537,351.905463 362.153662,351.905463 L149.846338,351.905463 C136.037419,351.905463 124.843079,340.710915 124.843079,326.902825 L124.843079,188.073738 Z" id="Oval-1" sketch:type="MSShapeGroup"></path>
            <path d="M199.365493,235.645183 C199.365493,224.597867 208.324491,215.642249 219.371245,215.642249 L292.628755,215.642249 C303.677627,215.642249 312.634507,224.601414 312.634507,235.645183 L312.634507,277.354817 C312.634507,288.402133 303.675509,297.357751 292.628755,297.357751 L219.371245,297.357751 C208.322373,297.357751 199.365493,288.398586 199.365493,277.354817 L199.365493,235.645183 Z M210.692395,256.5 L247.909356,237.891519 L247.909356,275.108481 L210.692395,256.5 Z M301.307605,256.5 L264.090644,237.891519 L264.090644,275.108481 L301.307605,256.5 Z" id="Rectangle-2" sketch:type="MSShapeGroup"></path>
        </g>
    </g>
</svg>