<?xml version="1.0" encoding="UTF-8" standalone="no"?>
<svg width="512px" height="512px" viewBox="0 0 512 512" version="1.1" xmlns="http://www.w3.org/2000/svg" xmlns:xlink="http://www.w3.org/1999/xlink" xmlns:sketch="http://www.bohemiancoding.com/sketch/ns">
    <!-- Generator: Sketch 3.2.2 (9983) - http://www.bohemiancoding.com/sketch -->
    <title>twitter</title>
    <desc>Created with Sketch.</desc>
    <defs></defs>
    <g id="Page-1" stroke="none" stroke-width="1" fill="none" fill-rule="evenodd" sketch:type="MSPage">
        <g id="twitter" sketch:type="MSArtboardGroup" fill="#B1B1B1">
            <path d="M256,506 C394.071187,506 506,394.071187 506,256 C506,117.928813 394.071187,6 256,6 C117.928813,6 6,117.928813 6,256 C6,394.071187 117.928813,506 256,506 Z M398.183594,174.534962 C388.303441,178.927041 377.683432,181.894118 366.539734,183.22897 C377.914397,176.395927 386.651827,165.575858 390.76475,152.682201 C380.117886,159.010612 368.326968,163.604533 355.776057,166.080474 C345.726712,155.349205 331.407358,148.645353 315.55992,148.645353 C285.13263,148.645353 260.461812,173.365612 260.461812,203.857224 C260.461812,208.184715 260.949235,212.399178 261.889178,216.440059 C216.097833,214.137716 175.500361,192.155764 148.325267,158.750913 C143.582584,166.905328 140.864802,176.389211 140.864802,186.508235 C140.864802,205.664382 150.591876,222.563944 165.375823,232.464962 C156.344324,232.178351 147.848586,229.694345 140.420347,225.559282 C140.414083,225.78937 140.414083,226.020808 140.414083,226.253611 C140.414083,253.004416 159.406315,275.31872 184.611547,280.394378 C179.988371,281.656561 175.12081,282.330711 170.09613,282.330711 C166.545839,282.330711 163.094918,281.983546 159.729917,281.340341 C166.741886,303.275186 187.088968,319.2382 211.199848,319.682246 C192.343252,334.492072 168.586869,343.319302 142.771997,343.319302 C138.324715,343.319302 133.939222,343.056904 129.628906,342.546906 C154.012372,358.213895 182.973353,367.354647 214.088152,367.354647 C315.431456,367.354647 370.851835,283.222866 370.851835,210.258304 C370.851835,207.864462 370.798126,205.484068 370.692054,203.114455 C381.455732,195.331417 390.796083,185.607998 398.182701,174.534962 L398.183594,174.534962 Z" id="Oval-1" sketch:type="MSShapeGroup"></path>
        </g>
    </g>
</svg>